# xmcd CD database file generated by LOLA_Freedb v0.9beta0
# 
# Track frame offsets:
#      150
#      28297
#      47520
#      60407
#      78427
#      102600
#      123454
#      144704
#      166811
#      182789
# 
# Disc length: 2665 seconds
# 
# Revision: 0 
# Processed by: cddbd v1.5.1PL2 Copyright (c) Steve Scherf et al.
# Submitted via: LOLA_Freedb v0.9beta0
# 
DISCID=880a670a
DTITLE=Eagles - Greatest hits Volume 2
DYEAR=1900
DGENRE=
TTITLE0=Hotel California
TTITLE1=Heartache tonight
TTITLE2=Seven bridges road
TTITLE3=Victim of Love
TTITLE4=The sad café
TTITLE5=Life in the fast lane
TTITLE6=I can't tell you why
TTITLE7=New kid in town
TTITLE8=The long run
TTITLE9=After the thrill is gone
EXTD=
EXTT0=
EXTT1=
EXTT2=
EXTT3=
EXTT4=
EXTT5=
EXTT6=
EXTT7=
EXTT8=
EXTT9=
PLAYORDER=
